<?xml version="1.0" encoding="UTF-8"?>
<svg id="Layer_2" data-name="Layer 2" xmlns="http://www.w3.org/2000/svg" viewBox="0 0 100 100">
  <defs>
    <style>
      .cls-1 {
        fill: #fff;
      }

      .cls-2 {
        fill: none;
      }
    </style>
  </defs>
  <g id="Layer_1-2" data-name="Layer 1">
    <g>
      <rect class="cls-2" width="100" height="100"/>
      <g>
        <path class="cls-1" d="m49.4,4.02c6.77.03,12.42,1.22,17.89,3.36,1.64.64,2.85,1.67,3.09,3.45.46,3.33-2.54,5.6-5.77,4.4-2.2-.82-4.4-1.64-6.71-2.06-15.52-2.83-28.37,1.85-38.02,14.26-10.04,12.92-10.23,31-.64,44.24,8.76,12.1,20.82,17.4,35.64,15.64,11.53-1.37,20.47-7.26,26.82-16.98,4.74-7.26,6.58-15.26,5.81-23.89-.19-2.15-.66-4.22-1.1-6.32-.48-2.26.83-4.39,3.02-4.94,2.19-.55,4.51.77,5.05,3.01,3.54,14.8.94,28.36-8.52,40.37-7.29,9.25-16.87,14.92-28.5,16.77-13.87,2.2-26.3-1.28-37.1-10.3-7.51-6.28-12.5-14.25-14.87-23.71-3.21-12.84-1.26-24.99,5.9-36.15,6.51-10.14,15.75-16.64,27.37-19.76,3.76-1.01,7.62-1.36,10.63-1.4Z"/>
        <path class="cls-1" d="m25.63,42.34c.04-3.46,2.05-6.32,5.21-7.42,3.1-1.07,6.62-.1,8.66,2.67,2.91,3.94,5.66,7.99,8.47,11.99,1.2,1.71,2.54,1.79,3.87.16,6.95-8.55,13.88-17.1,20.82-25.65,4.8-5.91,9.59-11.83,14.39-17.74,1.43-1.76,3.27-2.39,5.46-1.8,1.96.52,3.27,2.23,3.47,4.44.11,1.31-.37,2.45-1.12,3.51-5.33,7.59-10.66,15.19-15.98,22.8-8.4,12-16.79,24.01-25.18,36.02-2.5,3.59-6.91,3.65-9.43.06-5.68-8.1-11.33-16.21-17-24.32-.99-1.42-1.71-2.93-1.64-4.72Z"/>
      </g>
    </g>
  </g>
</svg>