<?xml version="1.0" encoding="UTF-8"?>
<svg id="Layer_2" data-name="Layer 2" xmlns="http://www.w3.org/2000/svg" viewBox="0 0 100 100">
  <defs>
    <style>
      .cls-1 {
        fill: none;
      }

      .cls-2 {
        fill: #2283a0;
      }
    </style>
  </defs>
  <g id="Layer_1-2" data-name="Layer 1">
    <g>
      <rect class="cls-1" width="100" height="100"/>
      <g>
        <path class="cls-2" d="m72.95,95.78H27.18c-.16-.05-.32-.12-.48-.16-4.79-1-8.16-5.04-8.16-9.91.01-21.54.01-43.08,0-64.62,0-2.2.44-4.25,1.71-6.06,1.85-2.65,4.38-4.23,7.63-4.34,3.7-.12,7.41-.04,11.11-.05,1.76,0,1.79,0,1.75-1.79-.03-1.37.4-2.52,1.36-3.48.54-.55,1.31-.71,1.91-1.15,4,0,7.99,0,11.99,0,.12.08.22.19.35.24,1.34.52,2.28,1.38,2.73,2.8.23.73.16,1.44.17,2.16.01,1.22,0,1.22,1.19,1.22,3.83,0,7.65-.03,11.48.03,2.88.05,5.25,1.29,7.14,3.44,1.79,2.04,2.44,4.45,2.43,7.14-.04,10.14-.02,20.28-.03,30.42,0,11.53.04,23.06-.04,34.58-.02,3.48-1.77,6.13-4.69,8.01-1.16.75-2.49,1.06-3.76,1.51Zm2.78-42.59c0-10.8,0-21.59,0-32.39,0-2.55-1.86-4.41-4.42-4.44-.9-.01-1.8-.01-2.71,0-1.33.02-1.22-.21-1.22,1.19,0,2.9-.01,5.8,0,8.7.02,3.37-2.53,5.37-5.3,5.34-8.09-.07-16.18-.02-24.27-.03-.41,0-.82.01-1.23-.09-2.49-.64-3.96-2.58-3.96-5.26,0-2.85.01-5.7,0-8.55,0-1.55.1-1.28-1.27-1.3-.76-.01-1.51.05-2.27-.01-2.74-.21-4.88,1.94-4.87,4.85.06,21.45.03,42.89.04,64.34,0,2.69,1.83,4.53,4.54,4.54,14.14,0,28.27,0,42.41,0,2.69,0,4.53-1.88,4.53-4.56,0-10.77,0-21.54,0-32.32Zm-25.77-27.29h0c3.65,0,7.3-.02,10.96,0,.59,0,.8-.15.79-.77-.03-2.48-.03-4.97,0-7.45.01-.73-.26-.89-.93-.89-7.23.02-14.46.02-21.7,0-.67,0-.82.24-.82.85.02,2.46.03,4.92,0,7.38-.01.69.17.91.88.9,3.6-.04,7.21-.02,10.81-.02Zm2.2-17.56c0-1.11-1.02-2.1-2.16-2.11-1.09,0-2.13,1-2.15,2.07-.02,1.07,1.03,2.18,2.1,2.2,1.1.02,2.22-1.07,2.21-2.16Z"/>
        <path class="cls-2" d="m28.04,46.98c0-1.34-.07-2.68.02-4.01.08-1.23,1.03-2.02,2.25-2.03,2.17-.01,4.33,0,6.5,0,.8,0,1.5.24,1.96.93.32.48.56.36.81-.02.23-.35.5-.66.86-.88.61-.38,1.31-.29,1.79.21.53.56.6,1.13.1,1.77-.79,1.02-1.61,2.01-2.45,2.98-.38.44-.62.88-.6,1.5.04.95.02,1.9,0,2.85-.02,1.67-.97,2.63-2.62,2.64-2,.01-3.99.01-5.99,0-1.8-.01-2.71-.99-2.67-2.79.02-1.05,0-2.09,0-3.14.01,0,.03,0,.04,0Zm1.49-.04c0,1.14,0,2.29,0,3.43,0,.62.27.98.91.98,2.14,0,4.29,0,6.43,0,.46,0,.81-.24.85-.73.04-.48.02-.97.02-1.46,0-.12.01-.26-.13-.31-.15-.05-.22.07-.3.15-.37.45-.73.91-1.11,1.35-.53.62-1.44.81-2.02.3-1.21-1.05-2.39-2.15-3.52-3.28-.57-.57-.49-1.42.04-1.98.45-.48,1.34-.5,1.93-.02.42.33.81.7,1.22,1.05.64.54,1.38.54,1.94-.07.62-.68,1.2-1.4,1.78-2.12.31-.38.21-.86.09-1.26-.11-.37-.49-.52-.89-.52-2.07,0-4.14-.02-6.21,0-.72,0-1,.33-1.01,1.05-.01,1.14,0,2.29,0,3.43Z"/>
        <path class="cls-2" d="m33.58,84.54c-1,0-2-.06-2.99.01-1.66.12-2.64-1.23-2.6-2.64.05-2,.01-3.99.02-5.99,0-.41,0-.82.02-1.24.03-1.19,1.43-2.16,2.39-2.15,2.09.02,4.19,0,6.28,0,.79,0,1.51.23,2,.87.27.35.4.22.6-.02.3-.35.59-.71.93-1.03.66-.61,1.33-.63,1.95-.08.62.55.68,1.21.1,1.94-.83,1.05-1.69,2.07-2.56,3.09-.3.35-.44.72-.42,1.19.03,1.12-.01,2.24.02,3.36.04,1.4-.91,2.79-2.66,2.68-1.02-.07-2.05-.01-3.07-.01Zm-4.05-5.95c0,1.1,0,2.19,0,3.29,0,.87.2,1.12,1.05,1.13,2.07.02,4.14.01,6.22,0,.48,0,.89-.18.92-.73.04-.66.02-1.32.02-1.97,0-.11.02-.26-.13-.3-.14-.04-.21.09-.29.18-.34.41-.68.83-1.02,1.24-.75.91-1.59.96-2.44.17-.98-.91-1.97-1.8-2.96-2.7-.69-.63-.8-1.56-.25-2.22.5-.6,1.43-.6,2.15.02.37.32.7.68,1.07.99.6.51,1.28.5,1.82-.07.59-.61,1.12-1.28,1.68-1.92.27-.31.5-.62.3-1.05-.21-.43-.59-.52-1.04-.52-2,.01-4,0-6,0-.81,0-1.09.29-1.1,1.09,0,1.12,0,2.24,0,3.36Z"/>
        <path class="cls-2" d="m28.04,62.81c0-1.31-.07-2.63.02-3.94.08-1.23,1.02-2,2.26-2.01,2.17-.02,4.34,0,6.5,0,.76,0,1.45.21,1.91.86.21.29.37.24.57,0,.26-.32.51-.65.81-.94.61-.6,1.49-.64,2.04-.13.63.59.68,1.29.09,2.02-.76.94-1.55,1.87-2.35,2.78-.4.46-.65.92-.62,1.57.05,1.04.02,2.09.01,3.14-.01,1.69-.91,2.63-2.61,2.65-2.09.02-4.19.02-6.28,0-1.48-.02-2.4-1.01-2.41-2.54,0-1.14,0-2.29,0-3.43h.06Zm1.48.06c0,1.15,0,2.29,0,3.44,0,.53.23.92.8.92,2.19.02,4.39.02,6.58,0,.47,0,.78-.28.81-.76.03-.58.02-1.17.01-1.75,0-.11.04-.26-.11-.32-.18-.07-.26.1-.35.2-.35.41-.67.83-1.02,1.24-.59.68-1.41.88-2.07.35-1.28-1.05-2.53-2.14-3.62-3.39-.5-.57-.36-1.39.2-1.9.52-.47,1.19-.48,1.79,0,.38.3.73.64,1.1.96.86.76,1.65.69,2.38-.21.43-.53.84-1.08,1.3-1.57.33-.36.51-.74.33-1.18-.2-.5-.66-.57-1.16-.56-1.93.01-3.85,0-5.78,0-.93,0-1.2.28-1.2,1.24,0,1.1,0,2.19,0,3.29Z"/>
        <path class="cls-2" d="m59.46,59.94c3.7,0,7.4,0,11.1,0,1.04,0,1.61.34,1.8,1.03.22.78-.14,1.47-.9,1.74-.33.11-.66.13-1.01.13-7.33,0-14.66,0-21.99-.01-.32,0-.62-.01-.94-.1-.67-.18-.98-.65-1.03-1.27-.05-.63.23-1.12.85-1.38.33-.14.66-.15,1-.15,3.7,0,7.4,0,11.1,0Z"/>
        <path class="cls-2" d="m59.45,48.79c-3.73,0-7.45,0-11.18,0-.64,0-1.27-.08-1.61-.76-.27-.54-.22-1.03.11-1.51.36-.52.91-.59,1.48-.59,6.58,0,13.15,0,19.73,0,1,0,2-.03,2.99.02.87.04,1.34.5,1.45,1.27.09.6-.28,1.24-.87,1.44-.34.12-.71.16-1.08.16-3.68,0-7.35,0-11.03,0,0,0,0,0,0-.01Z"/>
        <path class="cls-2" d="m59.44,76.77c-3.8,0-7.6,0-11.4,0-.57,0-1.05-.14-1.35-.68-.29-.52-.26-1.02.07-1.51.28-.43.7-.58,1.18-.58,7.67,0,15.35,0,23.02,0,.89,0,1.53.66,1.49,1.45-.03.78-.63,1.31-1.54,1.31-3.82,0-7.65,0-11.47,0Z"/>
      </g>
    </g>
  </g>
</svg>