<?xml version="1.0" encoding="UTF-8"?>
<svg id="Layer_2" data-name="Layer 2" xmlns="http://www.w3.org/2000/svg" viewBox="0 0 100 100">

  <g id="Layer_1-2" data-name="Layer 1">


      <g>
        <path class="cls-2" d="m19.42,13.25c0-.74-.02-1.41,0-2.07.08-3.5,2.74-6.14,6.16-6.12,3.48,0,6.12,2.67,6.16,6.22,0,.63,0,1.26,0,1.99h36.51c0-.73-.01-1.44,0-2.15.06-3.04,2.31-5.63,5.23-6.01,3.2-.42,6.09,1.47,6.89,4.53.16.64.16,1.32.2,1.99.03.53,0,1.08,0,1.46,1.73.29,3.37.39,4.89.85,5.57,1.69,9.27,6.77,9.28,12.62,0,6.97-.05,13.94-.04,20.91,0,11.29.03,22.57.04,33.87.01,7.02-4.48,12.35-11.38,13.51-.63.1-1.28.12-1.91.12-20.98,0-41.95.01-62.92,0-7.48,0-13.3-5.84-13.3-13.34,0-8.59.02-17.17.02-25.75,0-9.61-.02-19.22-.02-28.83,0-7.93,5.56-13.58,13.48-13.73.18,0,.36-.03.69-.05Zm-11.27,26.63v16.49c0,8.43-.01,16.87.01,25.3,0,.84.09,1.7.3,2.52,1.17,4.72,5.21,7.86,10.15,7.86,15.47.01,30.94,0,46.4,0,5.48,0,10.96.02,16.44,0,5.89-.03,10.4-4.57,10.4-10.44,0-13.57,0-27.14,0-40.71v-1.02H8.15Zm23.68-23.63c-.07,1.18,0,2.3-.22,3.35-.67,3.18-3.45,5.12-6.75,4.83-2.98-.27-5.32-2.86-5.43-6.01-.03-.72,0-1.43,0-2.13-5.82-.65-11.18,4.13-11.25,9.94-.05,3.32-.01,6.64-.01,9.96,0,.23.05.46.08.68h83.58c.02-.31.05-.58.05-.85,0-3.16,0-6.33,0-9.5,0-2.68-.93-5.01-2.73-6.97-2.27-2.44-5.1-3.5-8.55-3.33,0,.9.06,1.72-.01,2.53-.27,3.39-2.99,5.8-6.38,5.7-3.3-.1-5.85-2.73-5.91-6.09-.01-.69,0-1.38,0-2.12H31.82Zm-2.98-1.46c0-1.19.02-2.38,0-3.56-.04-1.87-1.42-3.26-3.23-3.27-1.83,0-3.24,1.33-3.27,3.21-.04,2.41-.05,4.81,0,7.21.03,1.83,1.45,3.17,3.21,3.17,1.84,0,3.23-1.35,3.28-3.21.02-1.19,0-2.38,0-3.56Zm48.83.05h0c0-1.24.04-2.49,0-3.74-.08-1.86-1.5-3.17-3.34-3.13-1.76.04-3.13,1.43-3.14,3.25-.03,2.35-.02,4.69,0,7.03.02,1.93,1.39,3.3,3.27,3.31,1.81,0,3.18-1.36,3.23-3.25.03-1.15,0-2.31,0-3.47Z"/>
        <path class="cls-2" d="m49.91,82.17c-1.52,0-3.04.01-4.57,0-1.2-.01-1.72-.53-1.72-1.73-.01-3.1-.01-6.21,0-9.31,0-1.13.54-1.7,1.67-1.7,3.13-.02,6.27-.02,9.41,0,1.13,0,1.67.57,1.67,1.7.01,3.1.01,6.21,0,9.31,0,1.21-.5,1.72-1.72,1.73-1.58.01-3.17,0-4.75,0h0Zm3.5-2.96v-6.81h-6.81v6.81h6.81Z"/>
        <path class="cls-2" d="m34.7,75.76c0,1.58.02,3.16,0,4.74-.01,1.17-.51,1.65-1.69,1.65-3.13.01-6.27.01-9.4,0-1.1,0-1.64-.51-1.65-1.62-.02-3.17-.01-6.33.01-9.49.01-1.1.55-1.63,1.65-1.63,3.13-.02,6.26-.02,9.4,0,1.15,0,1.65.52,1.66,1.69.02,1.56,0,3.1,0,4.66h0Zm-2.97,3.46v-6.85h-6.79v6.85h6.79Z"/>
        <path class="cls-2" d="m56.38,56.15c0,1.52,0,3.04,0,4.57-.01,1.26-.5,1.75-1.79,1.76-3.07.01-6.15.01-9.22,0-1.23,0-1.73-.5-1.74-1.71-.02-3.14-.02-6.27,0-9.4,0-1.06.49-1.6,1.56-1.62,3.2-.04,6.39-.04,9.58,0,1.15.01,1.6.56,1.61,1.74.01,1.56,0,3.1,0,4.66Zm-9.79-3.45v6.81h6.83v-6.81h-6.83Z"/>
        <path class="cls-2" d="m34.7,56.15c0,1.55.01,3.1,0,4.65-.02,1.18-.49,1.66-1.68,1.67-3.13.02-6.26.02-9.39,0-1.11,0-1.65-.49-1.66-1.61-.04-3.19-.02-6.38-.01-9.57,0-.86.47-1.4,1.33-1.43,1.63-.06,3.27-.04,4.91-.06,1.42-.02,2.85-.06,4.27-.07,1.9,0,2.24.34,2.24,2.23v4.2h0Zm-2.92,3.37v-6.8h-6.87v6.8h6.87Z"/>
        <path class="cls-2" d="m71.67,62.47c-1.55,0-3.1.01-4.65,0-1.23-.02-1.72-.49-1.72-1.72-.01-3.1-.02-6.2,0-9.3,0-1.28.53-1.67,1.81-1.65,1.48.04,2.97-.06,4.46-.07,1.72-.01,3.44.01,5.16.04.7.01,1.25.6,1.26,1.31.02,3.13.05,6.25.05,9.38,0,1.58-.44,2.01-2,2.01h-4.37Zm-3.42-9.79v6.83h6.83v-6.83h-6.83Z"/>
      </g>

  </g>
</svg>