<?xml version="1.0" encoding="UTF-8"?>
<svg id="Layer_2" data-name="Layer 2" xmlns="http://www.w3.org/2000/svg" viewBox="0 0 100 100">
  <defs>
    <style>
      .cls-1 {
        fill: #727272;
      }

      .cls-2 {
        fill: none;
      }
    </style>
  </defs>
  <g id="Layer_1-2" data-name="Layer 1">
    <g>
      <rect class="cls-2" width="100" height="100"/>
      <g>
        <path class="cls-1" d="m3,46.41c.45-1.49.43-3.06.7-4.58,1.28-7.25,4.11-13.84,8.51-19.72,6.44-8.62,14.87-14.42,25.24-17.34,5.25-1.48,10.62-2.02,16.06-1.52,17.62,1.64,30.44,10.46,38.64,26,2.48,4.69,3.88,9.76,4.49,15.05,1.32,11.38-1.06,21.91-7.38,31.46-6.46,9.76-15.41,16.25-26.7,19.45-5.68,1.61-11.5,2.1-17.36,1.46-12.26-1.35-22.52-6.66-30.66-15.91-5.59-6.35-9.12-13.75-10.75-22.04-.3-1.52-.42-3.08-.61-4.62-.04-.3,0-.61-.18-.89v-6.79Zm88.12,3.61c-.02-22.71-18.42-41.1-41.15-41.06-22.8.04-41.5,18.5-41.07,41.86.4,22.16,18.46,40.28,41.3,40.2,22.67-.08,40.85-18.4,40.92-41Z"/>
        <g>
          <rect class="cls-1" x="46.87" y="23.83" width="2.99" height="53.76" rx=".35" ry=".35" transform="translate(-21.69 49.05) rotate(-45)"/>
          <rect class="cls-1" x="46.87" y="23.83" width="2.99" height="53.76" rx=".35" ry=".35" transform="translate(46.71 120.76) rotate(-135)"/>
        </g>
      </g>
    </g>
  </g>
</svg>