<?xml version="1.0" encoding="UTF-8"?>
<svg id="Layer_2" data-name="Layer 2" xmlns="http://www.w3.org/2000/svg" viewBox="0 0 100 100">
  <defs>
    <style>
      .cls-1 {
        fill: #fff;
      }

      .cls-2 {
        fill: none;
      }
    </style>
  </defs>
  <g id="Layer_1-2" data-name="Layer 1">
    <g>
      <rect class="cls-2" width="100" height="100"/>
      <g>
        <path class="cls-1" d="m95.54,50.77c-.42,24.92-21.05,45.33-46.61,44.76-24.76-.56-44.87-21.04-44.46-46.3C4.86,24.28,25.55,3.83,51.2,4.47c24.72.62,44.72,21.11,44.33,46.3Zm-7.57-.78c-.09-21.31-17.43-37.96-37.95-37.93-20.97.03-37.94,17.02-37.95,37.97,0,20.56,16.69,37.92,37.96,37.91,21.01-.01,37.86-17,37.94-37.95Z"/>
        <path class="cls-1" d="m31.02,65.2c.03-1.13.47-2.07,1.27-2.86,3.97-3.96,7.92-7.93,11.9-11.88.36-.36.37-.55,0-.91-4.01-3.98-8-7.98-11.99-11.98-1.18-1.18-1.5-2.78-.88-4.24.6-1.41,2.08-2.38,3.6-2.31,1.08.05,1.97.49,2.74,1.26,3.94,3.96,7.9,7.89,11.83,11.86.4.4.59.43,1.01.01,3.96-4,7.94-7.97,11.92-11.94,1.21-1.2,2.77-1.51,4.23-.87,1.49.66,2.4,2.07,2.33,3.65-.05,1.06-.51,1.93-1.26,2.67-3.96,3.94-7.9,7.9-11.86,11.84-.4.4-.44.59-.01,1.01,3.98,3.94,7.94,7.91,11.9,11.88,1.89,1.89,1.57,4.72-.67,6.08-1.48.9-3.34.65-4.65-.65-3.05-3.04-6.1-6.09-9.14-9.14-.95-.95-1.91-1.88-2.84-2.85-.35-.37-.55-.37-.91,0-3.97,4-7.95,7.97-11.93,11.95-1.08,1.08-2.36,1.51-3.85,1.05-1.47-.45-2.35-1.47-2.68-2.96-.02-.11-.05-.21-.06-.32-.01-.11,0-.22,0-.33Z"/>
      </g>
    </g>
  </g>
</svg>