<?xml version="1.0" encoding="UTF-8"?>
<svg id="Layer_2" data-name="Layer 2" xmlns="http://www.w3.org/2000/svg" viewBox="0 0 100 100">
  <defs>
    <style>
      .cls-1 {
        fill: none;
      }

      .cls-2 {
        fill: #16ad05;
      }
    </style>
  </defs>
  <g id="Layer_1-2" data-name="Layer 1">
    <g>
      <rect class="cls-1" width="100" height="100"/>
      <g>
        <path class="cls-2" d="m2.88,46.4c.45-1.5.43-3.07.7-4.59,1.28-7.27,4.12-13.87,8.53-19.78,6.46-8.64,14.91-14.45,25.31-17.38,5.26-1.48,10.65-2.03,16.1-1.52,17.66,1.65,30.51,10.49,38.74,26.06,2.48,4.7,3.89,9.79,4.5,15.09,1.33,11.41-1.06,21.97-7.4,31.55-6.48,9.79-15.45,16.29-26.77,19.5-5.7,1.62-11.53,2.11-17.4,1.46-12.29-1.35-22.57-6.68-30.74-15.96-5.61-6.37-9.14-13.79-10.78-22.1-.3-1.53-.42-3.09-.61-4.64-.04-.3,0-.62-.18-.89v-6.81Zm88.35,3.62c-.02-22.77-18.47-41.21-41.25-41.17-22.86.04-41.61,18.55-41.18,41.97.4,22.22,18.51,40.38,41.4,40.3,22.73-.08,40.95-18.45,41.03-41.1Z"/>
        <path class="cls-2" d="m28.69,48.24c1-.01,1.73.51,2.4,1.18,3.38,3.39,6.79,6.75,10.15,10.17.59.6.86.53,1.41-.03,8.4-8.44,16.83-16.86,25.25-25.28.26-.26.54-.51.78-.78,1.13-1.31,2.89-1.5,4.13-.43,1.32,1.14,1.43,3.03.19,4.33-1.51,1.57-3.07,3.09-4.62,4.63-8.04,8.02-16.08,16.05-24.13,24.07-1.75,1.75-3.27,1.76-5,.04-4.2-4.18-8.4-8.36-12.58-12.56-1.82-1.83-1.3-4.34,1.02-5.18.33-.12.66-.13.99-.14Z"/>
      </g>
    </g>
  </g>
</svg>