<?xml version="1.0" encoding="UTF-8"?>
<svg id="Layer_2" data-name="Layer 2" xmlns="http://www.w3.org/2000/svg" viewBox="0 0 100 100">
  <defs>
    <style>
      .cls-1 {
        fill: none;
      }

      .cls-2 {
        fill: red;
      }
    </style>
  </defs>
  <g id="Layer_1-2" data-name="Layer 1">
    <g>
      <rect class="cls-1" width="100" height="100"/>
      <g>
        <path class="cls-2" d="m33.9,27.43c.47,0,.94,0,1.41,0,14.09-.02,28.17-.03,42.26-.05.91,0,1.82.04,2.73.03.99-.02,1.43.47,1.34,1.43-.23,2.41-.46,4.81-.73,7.21-.8,7.1-1.62,14.2-2.43,21.29-.66,5.81-1.33,11.62-1.99,17.44-.53,4.63-1.03,9.26-1.6,13.88-.13,1.03-.43,2.06-.82,3.03-1.19,2.99-3.2,4.31-6.4,4.31-11.81,0-23.62,0-35.43,0-3.57,0-5.81-1.49-6.74-4.97-.67-2.48-.94-5.08-1.25-7.65-.73-5.98-1.38-11.97-2.05-17.95-.74-6.54-1.46-13.09-2.2-19.63-.51-4.49-1.04-8.98-1.55-13.46-.03-.28-.11-.56-.09-.83.1-1.14-.37-1.82-1.39-2.43-2.57-1.54-3.5-3.99-2.99-6.85.49-2.7,2.24-4.36,4.95-4.94,6.12-1.31,12.24-2.61,18.36-3.92,1.87-.4,1.51-.25,1.33-1.75-.29-2.34.48-3.99,2.71-4.74,2.64-.89,5.38-1.48,8.11-2.1,1.6-.36,3.24-.59,4.87-.73,2.64-.23,4.2.91,4.81,3.49.21.89.53,1.09,1.44.89,5.94-1.31,11.89-2.57,17.85-3.83,3.52-.74,6.68,1.28,7.57,4.82.83,3.31-1.07,6.7-4.5,7.53-4.99,1.21-10.04,2.23-15.06,3.31-10.02,2.15-20.04,4.28-30.07,6.41-.81.17-1.64.3-2.46.45,0,.11.01.22.02.32Zm15.99,2.34v-.02c-9.36,0-18.71,0-28.07-.01-.86,0-1.17.19-1.06,1.13.49,4.03.9,8.07,1.35,12.11.73,6.44,1.46,12.88,2.2,19.31.67,5.85,1.32,11.69,2.01,17.53.38,3.2.68,6.41,1.25,9.58.58,3.18,1.98,4.17,5.16,4.17,11.28,0,22.57-.08,33.85.03,3.71.03,4.94-1.09,5.76-4.79.11-.51.17-1.04.23-1.56.67-5.88,1.34-11.76,2.01-17.64.81-7.1,1.62-14.2,2.42-21.3.65-5.71,1.28-11.42,1.94-17.12.16-1.4.2-1.42-1.2-1.42-9.29,0-18.57,0-27.86,0Zm-29.78-2.3c.69-.11,1.39-.19,2.07-.34,5.61-1.19,11.22-2.4,16.83-3.6,10.19-2.18,20.39-4.35,30.58-6.52,3.76-.8,7.54-1.56,11.29-2.41,2.05-.47,3.18-2.56,2.67-4.66-.52-2.14-2.45-3.44-4.47-3.01-17.24,3.68-34.48,7.36-51.72,11.04-2.84.61-5.69,1.15-8.49,1.9-1.82.49-2.87,2.42-2.57,4.19.35,2.06,1.76,3.29,3.83,3.4Zm21.27-14.98c1.92-.42,3.79-.84,5.67-1.24,3.01-.64,6.03-1.24,9.03-1.91.33-.07.84-.52.81-.74-.19-1.58-1.06-2.43-2.59-2.15-3.88.72-7.75,1.52-11.57,2.49-1.8.46-2.11,1.57-1.36,3.55Z"/>
        <path class="cls-2" d="m48.35,59.27c0-5.78,0-11.56,0-17.33,0-.38,0-.77.04-1.15.08-.89.65-1.32,1.47-1.32.78,0,1.32.43,1.45,1.25.05.31.05.63.05.94.02,11.87.03,23.75.05,35.62,0,1.41-.69,2.15-1.82,1.95-1.11-.2-1.26-1.02-1.26-1.98.01-4.83,0-9.67,0-14.5,0-1.16,0-2.31,0-3.47h0Z"/>
        <path class="cls-2" d="m60.4,59.31c0-4.77,0-9.53,0-14.3,0-1.46.6-2.35,1.55-2.34.97,0,1.54.86,1.53,2.36,0,9.67-.02,19.34-.03,29.01,0,1.22-.59,1.98-1.53,2-.89.02-1.51-.78-1.51-2.02-.01-4.91,0-9.81,0-14.72h-.01Z"/>
        <path class="cls-2" d="m39.36,59.47c0,4.94,0,9.87,0,14.81,0,1.06-.62,1.77-1.5,1.78-.92.02-1.48-.61-1.54-1.73-.02-.28-.01-.56-.01-.84,0-5.32.01-10.64,0-15.96,0-4.2-.03-8.4-.04-12.6,0-.31.03-.63.09-.94.17-.88.73-1.42,1.61-1.33.85.08,1.37.68,1.38,1.58.02,1.47,0,2.94,0,4.41,0,3.61,0,7.21,0,10.82h0Z"/>
      </g>
    </g>
  </g>
</svg>