<?xml version="1.0" encoding="UTF-8"?>
<svg id="Layer_2" data-name="Layer 2" xmlns="http://www.w3.org/2000/svg" viewBox="0 0 100 100">
  <defs>
    <style>
      .cls-1 {
        fill: none;
      }

      .cls-2 {
        fill: #2283a0;
      }
    </style>
  </defs>
  <g id="Layer_1-2" data-name="Layer 1">
    <g>
      <rect class="cls-1" width="100" height="100"/>
      <g>
        <path class="cls-2" d="m94.98,18.05c-.99-4.83-4.71-7.48-9.95-7.12-.06,0-.18,0-.3.02-.02-.16-.02-.32-.02-.48-.06-3.07-2.37-5.38-5.38-5.38h-.02c-2.95,0-5.32,2.39-5.36,5.42,0,.14-.02.28-.02.42h-1.46c-.77-.02-1.54-.02-2.39,0,.02-.59-.04-1.19-.18-1.76-.67-2.61-3.09-4.31-5.76-4.06-2.65.24-4.73,2.45-4.85,5.1,0,.24-.02.51-.04.71h-1.7c-.69,0-1.4-.02-2.16,0,.02-.69-.06-1.34-.24-1.96-.69-2.43-3.09-4.07-5.58-3.88-2.49.18-4.55,2.12-4.91,4.61-.04.32-.06.63-.08.97v.26h-3.9c.02-.59,0-1.23-.18-1.88-.73-2.53-3.15-4.19-5.72-3.94-2.63.24-4.73,2.43-4.87,5.08-.02.26-.02.53-.04.73h-3.84c0-.53-.02-1.19-.2-1.84-.69-2.57-3.18-4.29-5.84-3.98-2.63.32-4.63,2.45-4.75,5.08,0,.26-.02.53-.04.73-.22.02-.53,0-.75,0-3.22-.1-5.72.85-7.56,2.99-1.05,1.23-1.54,2.69-1.9,4.09l-.04,57.9.02.22c1.05,4.71,4.61,7.38,9.57,7.12-1.07,2.14-1.74,4.35-2,6.59-.34,2.63.38,3.9,2.79,4.98l69.23.1.2-.1c2.41-1.15,3.15-2.55,2.73-5.22-.38-2.33-1.01-4.39-2-6.37.99.02,2,.02,3.05-.26,3.26-.87,5.34-2.97,6.19-6.25.04-.1.08-.22.1-.32l.12-58.15-.02-.2Zm-16.12-7.5c0-.2.06-.34.16-.44.1-.08.2-.12.32-.12h.02c.36,0,.44.3.44.55.02.67.02,1.35.02,2v1.74c0,.65,0,1.29-.02,1.94,0,.53-.28.53-.44.53-.08-.02-.26,0-.36-.1-.08-.08-.14-.24-.14-.44-.02-1.9-.02-3.8,0-5.68Zm-14.66,1.92c0-.65,0-1.29.02-1.94,0-.2.06-.53.44-.53h.02c.12,0,.24.04.32.12.1.1.14.22.14.36.04,1.94.04,3.86.02,5.78,0,.14-.04.32-.14.42-.12.1-.28.12-.38.1-.16,0-.42,0-.44-.55v-3.74Zm-14.7-.02c0-.61,0-1.23.02-1.84.02-.42.18-.61.47-.61.38,0,.47.32.47.59.02,1.86.02,3.74,0,5.6-.02.57-.3.57-.47.57-.16,0-.45,0-.47-.59-.02-.65-.02-1.31-.02-1.98l.02-.89-.02-.85Zm-14.66-1.88c0-.28.14-.57.47-.57.4,0,.45.38.47.59v5.6c-.02.57-.3.59-.45.59-.1-.02-.49,0-.49-.59-.02-1.86-.02-3.74,0-5.62Zm-13.69,3.68c0,.63,0,1.25-.02,1.88-.02.61-.3.63-.45.63-.2,0-.47.04-.49-.59v-5.54c0-.24.08-.44.18-.53.08-.08.16-.1.28-.1h.02c.42,0,.47.43.47.63.02.63.02,1.29.02,1.94l-.02.85.02.83Zm41.18,75.76H17.5c.81-4.57,3.24-8.47,7.46-11.89,4.65-3.76,10.29-6.19,17.25-7.42.24-.04.49-.1.75-.18.28-.06.77-.18.85-.18.12.1.3.59.4.89.1.28.2.53.3.79l.24.53c.16.38.32.73.47,1.07.63,1.19,1.94,1.7,3.16,1.19,1.23-.53,1.78-1.82,1.35-3.11-.22-.57-.45-1.15-.71-1.7,5.5-.1,10.86.71,15.84,2.47.38.12.71.26,1.07.4.28.12.55.22.85.34-.36.57-.79.77-1.72.73-2.31-.1-4.65-.08-6.92-.06h-3.94c-1.7.06-3.03.69-3.92,2.12-.4.61-.79,1.23-1.21,1.82-.32.45-.61.91-.93,1.38-.83,1.31-.63,2.73.53,3.54.55.38,1.17.53,1.78.42.69-.14,1.31-.57,1.8-1.27.67-1.01,1.36-2.02,2.14-3.11,3.96.02,7.91,0,12.01.04.65,1.05,1.35,2.08,2.06,3.11.89,1.31,2.29,1.64,3.5.83,1.17-.77,1.4-2.23.57-3.54-.63-.99-1.29-1.98-1.94-2.99.2-.36.42-.71.55-.91.24.12.59.36.95.57,4.45,2.81,7.48,6.09,9.28,10.01.51,1.13.91,2.39,1.25,4.11-6.75-.02-13.51-.02-20.27-.02Zm27.77-62.41c-.02,12.68-.02,25.36-.02,38.02v8.64c0,2.71-1.33,4.04-4.06,4.04h-1.09c-.81,0-1.64,0-2.47.02-.14.02-.22,0-.38-.2-2.39-2.79-5.18-5.1-8.45-6.94.22-.3.4-.63.59-1.03.59-1.21.2-2.55-.95-3.22-1.13-.65-2.49-.34-3.26.75-.28.42-.53.83-.79,1.29-3.86-1.64-7.95-2.79-12.16-3.38-3.26-.45-6.69-.57-10.19-.36-1.42-3.32-2.87-6.65-4.37-10.05,1.31-.34,2.53-.51,3.74-.53.99-.02,1.74-.36,2.37-1.09,2.18-2.53,4.89-3.74,8.15-3.6.57.02,2.04.06,2.75-1.4.69-1.48-.32-2.59-.69-3.01-4.04-4.49-9.16-6.76-15.23-6.76h-.06c-9.12.04-16.14,3.92-20.91,11.55-2.2,3.52-3.16,7.5-2.85,11.83l.04.45c.14,1.27.71,2.08,1.72,2.39.75.22,1.82.24,2.85-.99,1.46-1.74,3.34-2.87,5.6-3.36.95-.2,1.8-.28,2.61-.22,1.01.1,1.82-.24,2.55-1.01.71-.77,1.6-1.48,2.89-2.29,1.21,2.87,2.45,5.72,3.76,8.66-6.05.99-11.31,2.89-16.08,5.82-3.09,1.9-5.62,4.04-7.73,6.55-.14.16-.18.16-.32.16-.75-.02-1.48-.02-2.22-.02-.65.02-1.29.02-1.92,0-2.24-.04-3.64-1.44-3.64-3.68v-12.18c0-11.57,0-23.14-.02-34.89h.02c11.47.02,22.95.02,34.4.02h13.35c10.78-.02,21.56,0,32.36-.02h.1v.06Zm-55.88,26.19c-.83-3.48-.44-5.95,1.23-8.13.08-.1.14-.16.18-.2l.08.02c1.31.08,2.41.44,3.48,1.09,1.27.81,2.39,1.94,3.48,3.58-3.05.59-5.87,1.82-8.45,3.64Zm12.98-5.68c-.99-1.7-2.27-3.2-3.84-4.51,2.55.04,5.85.93,8.13,2.22-.34.12-.67.24-1.03.4-1.23.53-2.29,1.17-3.26,1.9Zm.16,1.15l-.81-.59s.12-.08.24-.12l.57.71Zm-17.76,6.31c.02.06.04.1.04.16-.06,0-.12.02-.18.02-1.56.3-3.07.83-4.45,1.58.53-2.43,2.14-5.42,3.96-7.42-.12,1.92.1,3.78.63,5.66Zm60.49-32.91c-1.96-.02-3.92-.02-5.89-.02h-41.52c-10.9,0-21.8,0-32.7.02h-.02s-.08.02-.08,0c.06-.73.04-1.44.04-2.18-.02-.38-.02-.77-.02-1.15.04-2,1.44-3.42,3.42-3.5h1.96c-.02.55-.02,1.13.14,1.74.65,2.67,3.09,4.35,5.89,4.07,2.57-.26,4.61-2.45,4.73-5.12.02-.24.02-.49.04-.69h3.84c0,.42.02.85.08,1.29.47,2.85,2.91,4.77,5.85,4.55,2.69-.22,4.77-2.49,4.85-5.3,0-.18,0-.38.02-.53h1.6c.71,0,1.44.02,2.27,0-.04.69.04,1.37.22,1.98.71,2.47,3.03,4,5.7,3.86,2.43-.2,4.45-2.12,4.81-4.59.04-.34.06-.65.08-.97v-.28h1.36c.85.02,1.7.04,2.53-.02-.06.59,0,1.21.14,1.82.69,2.61,3.09,4.27,5.84,4.02,2.59-.24,4.63-2.41,4.79-5.06.02-.26.04-.55.06-.73.2-.02.47-.02.75-.02h.99c.69,0,1.36.02,2.08,0,0,.57.02,1.21.2,1.86.69,2.61,3.09,4.23,5.89,3.96,2.55-.26,4.55-2.43,4.67-5.06.02-.26.04-.53.06-.75h1.09c.44,0,.89,0,1.33.06,1.74.28,2.89,1.6,2.93,3.38v1.31c0,.28-.02.57-.02.85,0,.42.02.81.04,1.23h-.02Z"/>
        <path class="cls-2" d="m78.4,45.11s.1,0,.2.02c.34.04.73.04,1.11-.02,1.29-.2,2.16-1.23,2.14-2.47-.04-1.31-1.03-2.31-2.35-2.39-.26-.02-.51,0-.77,0h-.38c-.1-.22,0-.36.28-.63.12-.12.24-.24.36-.38.99-1.11.99-2.55-.02-3.5-.93-.91-2.37-.91-3.48.06-.2.18-.44.4-.55.69,0,0-.08,0-.28-.08-.14-.06-.2-.1-.14-.16.06-.38.04-.77-.02-1.21-.18-1.23-1.21-2.14-2.41-2.14h-.06c-1.29.02-2.29,1.01-2.39,2.49-.02.24-.04.53.02.89-.02.02-.06.04-.08.04-.08.04-.18.08-.26.12-.04-.04-.08-.08-.12-.1l-.24-.24c-.4-.42-1.01-1.05-2.04-1.01-.71,0-1.35.28-1.8.75-.46.49-.69,1.15-.65,1.86.08,1.03.71,1.6,1.31,2.12l.67-.73-.61.93c-.08.2-.14.28-.28.22-.26-.02-.53-.02-.87,0-1.33.08-2.33,1.07-2.39,2.33-.06,1.33.95,2.43,2.33,2.55.32.02.63.02.93.02h.24c.06.12.1.16.12.16-.02.04-.1.16-.47.51-.18.18-.34.36-.49.55-.75.99-.65,2.39.24,3.26.91.87,2.27.91,3.26.1.28-.22.51-.47.75-.71l.18-.18c.16.04.2.08.2.08,0,0,.06.1.06.61,0,.22,0,.42.02.61.12,1.29,1.07,2.22,2.31,2.27h.12c1.27,0,2.29-.91,2.43-2.2.06-.42.06-.83.02-1.23.02,0,.06-.02.08-.04.22-.1.3-.1.34,0,.22.34.51.57.73.75,1.05.83,2.45.77,3.36-.14.85-.89.91-2.27.12-3.26-.3-.36-.57-.65-.89-.79,0,0,0-.06.06-.22.04-.12.08-.18.08-.2Zm-4.41-2.39c0,1.05-.85,1.88-1.9,1.88-.55,0-1.05-.2-1.42-.57-.36-.38-.55-.85-.55-1.34.02-.51.22-1.01.59-1.38.38-.36.85-.55,1.35-.55h.04c1.09.02,1.92.89,1.9,1.98Z"/>
      </g>
    </g>
  </g>
</svg>