<?xml version="1.0" encoding="UTF-8"?>
<svg id="Layer_2" data-name="Layer 2" xmlns="http://www.w3.org/2000/svg" viewBox="0 0 100 100">
  <defs>
    <style>
      .cls-1 {
        fill: none;
      }

      .cls-2 {
        fill: #2283a0;
        fill-rule: evenodd;
      }
    </style>
  </defs>
  <g id="Layer_1-2" data-name="Layer 1">
    <g>
      <rect class="cls-1" width="100" height="100"/>
      <path class="cls-2" d="m84.08,54.96v2.95c0,11.38,0,22.75,0,34.13,0,3.89-.45,4.35-4.42,4.35-6.21,0-12.42,0-18.63,0q-3.55,0-3.56-3.67c0-7.26-.06-14.52.04-21.78.02-1.89-.58-2.43-2.42-2.37-3.44.13-6.89.11-10.33,0-1.73-.06-2.34.45-2.31,2.27.1,7.48.05,14.97.04,22.45,0,3.01-.12,3.12-3.18,3.11-6.37,0-12.73,0-19.09,0-3.81,0-4.32-.5-4.32-4.23v-37.21c-2.85,0-5.57-.04-8.3.01-1.82.04-3.5-.16-4.32-2.07-.84-1.96.33-3.25,1.58-4.52,13.97-14.28,27.93-28.58,41.9-42.87,2.48-2.53,3.98-2.57,6.42-.07,14.13,14.43,28.25,28.89,42.37,43.33,1.18,1.21,1.92,2.52,1.12,4.22-.73,1.58-2.07,1.99-3.7,1.97-2.83-.04-5.67,0-8.89,0Zm-23.78,38.53h20.94v-2.68c0-10.92-.02-21.85,0-32.78.01-6.74-.6-5.77,5.89-5.85,2.27-.02,4.54,0,6.81,0,.08-.24.17-.48.25-.72-14.7-15.04-29.4-30.08-44.21-45.24-14.92,15.27-29.56,30.27-44.2,45.25.11.24.22.48.33.71,3.19,0,6.37,0,9.56,0,2.89,0,3.04.13,3.05,3.04.01,11.9,0,23.81.02,35.7,0,.86.11,1.71.17,2.53h20.78v-2.82c0-7.41.04-14.82-.02-22.24-.02-1.93.68-2.66,2.63-2.63,4.86.09,9.73.03,14.59.03,3.34,0,3.42.07,3.42,3.38v24.3Z"/>
    </g>
  </g>
</svg>