<?xml version="1.0" encoding="UTF-8"?>
<svg id="Layer_2" data-name="Layer 2" xmlns="http://www.w3.org/2000/svg" viewBox="0 0 100 100">
  <defs>
    <style>
      .cls-1 {
        fill: none;
      }

      .cls-2, .cls-3 {
        fill: #2283a0;
      }

      .cls-3 {
        font-family: OpenSans-Extrabold, 'Open Sans';
        font-size: 19.38px;
        font-weight: 700;
        letter-spacing: .02em;
      }
    </style>
  </defs>
  <g id="Layer_1-2" data-name="Layer 1">
    <g>
      <rect class="cls-1" width="100" height="100"/>
      <g>
        <path class="cls-2" d="m17.85,4.03c17.33,0,34.66,0,51.98,0,.09.11.17.24.27.33.59.53,1.19,1.05,1.77,1.58,5.01,4.56,10.01,9.13,15.03,13.69.32.29.44.58.44,1-.01,3.56,0,7.12,0,10.68,0,19.48,0,38.96,0,58.44,0,1-.08,2.01-.55,2.93-1.14,2.23-3.04,3.26-5.46,3.26-10.65.03-21.31.01-31.96.01-10.19,0-20.38,0-30.57,0-1.3,0-2.52-.24-3.62-.99-1.82-1.24-2.53-3.05-2.53-5.17,0-26.68,0-53.35,0-80.03,0-2.8,1.99-5.12,4.75-5.58.16-.03.3-.11.46-.16Zm.57,5.77v80.4h63.15V24.13h-15.79v-14.33H18.43Zm58.61,8.58c-1.85-1.68-3.64-3.32-5.46-4.98v4.98h5.46Z"/>
        <path class="cls-2" d="m74.33,50.69H25.42c5.03-6.24,9.98-12.39,15-18.62,1.82,1.8,3.59,3.55,5.39,5.33,3.19-4.02,6.36-8.01,9.59-12.07,6.33,8.48,12.62,16.9,18.94,25.36Zm-39.94-4.31h31.46c-3.52-4.72-7-9.38-10.51-14.08-.13.15-.24.25-.33.37-.62.8-1.24,1.61-1.87,2.41-2.25,2.85-4.51,5.7-6.75,8.55-.19.25-.31.18-.49,0-1.56-1.6-3.12-3.18-4.68-4.77-.13-.13-.28-.26-.42-.39-2.14,2.65-4.26,5.26-6.41,7.92Z"/>
        <path class="cls-2" d="m30.42,23.05c-.01-3.3,2.76-6.08,6.09-6.09,3.96-.02,6.26,3.28,6.26,6.12,0,3.36-2.8,6.08-6.25,6.08-3.34,0-6.09-2.75-6.1-6.12Zm6.14-1.78c-1.08,0-1.84.76-1.83,1.83,0,1.02.79,1.77,1.86,1.77,1.08,0,1.88-.78,1.88-1.81,0-1.02-.82-1.79-1.9-1.79Z"/>
        <text class="cls-3" transform="translate(29.39 78.95)"><tspan x="0" y="0">IMG</tspan></text>
      </g>
    </g>
  </g>
</svg>