<?xml version="1.0" encoding="UTF-8"?>
<svg id="Layer_2" data-name="Layer 2" xmlns="http://www.w3.org/2000/svg" viewBox="0 0 100 100">

  <g id="Layer_1-2" data-name="Layer 1">
      <path class="cls-2" d="m4.04,69.47c0-4.45.03-8.91-.02-13.36-.01-1.2.43-1.91,1.51-2.42,6.87-3.23,13.68-6.6,20.62-9.69,1.53-.68,1.68-1.43,1.67-2.8-.05-8.41,0-16.81-.05-25.22,0-1.29.45-2.04,1.62-2.59,6.84-3.21,13.66-6.46,20.47-9.74.98-.47,1.78-.41,2.71.07,6.38,3.27,12.78,6.53,19.19,9.75,1.04.52,1.41,1.23,1.41,2.37-.03,8.79-.01,17.58-.02,26.37,0,.79-.1,1.52,1.1,1.36.33-.04.71.25,1.05.42,6.43,3.26,12.86,6.54,19.3,9.78.99.5,1.37,1.18,1.37,2.27-.03,8.94-.03,17.89,0,26.83,0,1.19-.45,1.9-1.48,2.46-6.63,3.63-13.24,7.29-19.84,10.97-.9.5-1.68.49-2.58,0-6.65-3.68-13.3-7.34-19.98-10.96-1.08-.59-1.53-1.32-1.52-2.56.04-8.21.02-16.43.02-24.64,0-.38-.01-.77,0-1.15,0-.39-.17-.55-.55-.56-.41-.01-.39.27-.4.53-.01.27,0,.54,0,.81,0,8.25-.02,16.51.02,24.76,0,1.4-.46,2.25-1.71,2.92-6.59,3.55-13.14,7.16-19.68,10.78-1.02.57-1.87.55-2.9-.01-6.57-3.65-13.16-7.28-19.78-10.86-1.12-.61-1.58-1.36-1.57-2.64.06-4.41.02-8.83.02-13.24Zm49.98-11.17c-.1.19-.16.25-.16.31-.01,7.79-.02,15.58-.04,23.38,0,.46.21.69.58.89,5.48,3,10.97,6.01,16.44,9.03.67.37.86.22.86-.51-.02-7.56-.02-15.12-.02-22.69,0-.46-.1-.79-.55-1.03-2.4-1.3-4.78-2.61-7.16-3.93-.51-.28-.68-.13-.68.42.01,1.15-.02,2.3.02,3.45.02.71-.22.78-.79.5-.86-.43-1.71-.87-2.6-1.24-.52-.22-.64-.56-.63-1.07.03-1.27.01-2.53.01-3.8,0-.38.07-.77-.36-1.01-1.64-.89-3.27-1.79-4.91-2.69Zm-5.1-17.85s0,0-.01,0c0-3.72,0-7.44,0-11.16,0-.62-.08-1.07-.71-1.4-2.27-1.2-4.52-2.44-6.76-3.7-.66-.37-.96-.34-.93.51.04,1-.03,2,.03,2.99.06.98-.3,1.02-1.04.62-.74-.4-1.5-.77-2.28-1.08-.55-.22-.74-.54-.72-1.13.04-1.23-.02-2.46.03-3.68.02-.64-.15-1.06-.76-1.37-1.27-.63-2.52-1.31-3.73-2.04-.85-.51-.99-.23-.99.63.02,7.44.02,14.89,0,22.33,0,.67.23,1.02.81,1.34,5.36,2.91,10.7,5.84,16.03,8.8.83.46,1.08.43,1.06-.6-.05-3.68-.02-7.37-.02-11.05ZM7.41,58.27c-.06.26-.11.37-.11.47,0,7.71,0,15.42-.03,23.13,0,.55.23.81.68,1.06,5.42,2.96,10.83,5.93,16.23,8.91.65.36.98.36.93-.51-.03-.61-.01-1.23-.01-1.84,0-6.83,0-13.66,0-20.48,0-.53.06-1.04-.56-1.37-2.37-1.26-4.71-2.57-7.06-3.87-.52-.29-.76-.23-.74.42.02,1.07-.03,2.15.02,3.22.03.77-.1,1.09-.91.64-.77-.43-1.57-.8-2.39-1.13-.54-.22-.75-.55-.74-1.13.04-1.26,0-2.53.03-3.8,0-.49-.07-.87-.57-1.13-1.56-.82-3.1-1.68-4.76-2.58ZM68.06,15.26c-2.66-1.35-5.08-2.58-7.5-3.82-.37-.19-.65-.09-.97.08-5.44,2.84-10.87,5.69-16.32,8.51-.67.35-.7.56-.01.93,2.13,1.14,4.26,2.28,6.35,3.5.67.39,1.15.31,1.78-.04,2.91-1.63,5.84-3.22,8.77-4.82,2.55-1.4,5.1-2.8,7.89-4.33Zm-23.77,40.25c-2.68-1.36-5.13-2.61-7.58-3.85-.47-.24-.81.09-1.17.27-2.48,1.29-4.96,2.59-7.44,3.88-3.08,1.61-6.16,3.21-9.44,4.92,2.07,1.14,4.04,2.09,5.86,3.27,1.52.99,2.71.99,4.33.04,4.99-2.92,10.11-5.61,15.44-8.54Zm46.56,0c-2.54-1.3-4.83-2.44-7.09-3.64-.63-.33-1.1-.26-1.7.06-3.96,2.1-7.94,4.15-11.91,6.23-1.58.82-3.15,1.65-4.91,2.58,2.54,1.39,4.89,2.66,7.21,3.98.61.35,1.08.32,1.68-.01,3.71-2.07,7.44-4.11,11.17-6.15,1.77-.97,3.55-1.94,5.56-3.05Zm-58.92-6.28c-1.37-.69-2.51-1.22-3.6-1.85-.68-.39-1.22-.35-1.91-.02-5.39,2.59-10.8,5.15-16.19,7.72-.26.13-.6.18-.75.58,1.26.7,2.56,1.36,3.8,2.13.77.47,1.38.51,2.21.06,3.06-1.67,6.17-3.26,9.26-4.87,2.3-1.2,4.61-2.4,7.19-3.75Zm46.55,0c-1.4-.71-2.58-1.26-3.7-1.9-.61-.35-1.1-.29-1.71,0-5.46,2.62-10.93,5.21-16.4,7.82-.23.11-.53.15-.62.53,1.29.71,2.62,1.4,3.89,2.17.7.43,1.27.44,2,.04,2.32-1.27,4.68-2.47,7.02-3.69,3.09-1.61,6.17-3.22,9.52-4.97ZM34.16,15.86c1.6.88,2.95,1.57,4.25,2.36.64.39,1.13.36,1.79.02,4.74-2.51,9.5-4.97,14.26-7.45.73-.38,1.45-.78,2.34-1.27-1.33-.68-2.5-1.24-3.64-1.87-.6-.33-1.1-.33-1.72-.03-2.96,1.44-5.94,2.84-8.92,4.25-2.69,1.28-5.39,2.56-8.37,3.98Z"/>
  </g>
</svg>