<?xml version="1.0" encoding="UTF-8"?>
<svg id="Layer_2" data-name="Layer 2" xmlns="http://www.w3.org/2000/svg" viewBox="0 0 100 100">
  <g id="Layer_1-2" data-name="Layer 1">
    <g>
        <path class="cls-2" d="m88.74,79.96H11.26l.35-1.53c.38-1.68,1.06-3.02,2.05-4.09l.45-.49c.55-.61,1.11-1.23,1.77-1.79,3.4-2.94,5.07-6.92,6.26-10.43,1.11-3.29,1.71-7.03,1.82-11.43.04-1.58.06-3.16.07-4.74.02-2.68.05-5.45.23-8.19.54-8.41,3.48-14.92,8.97-19.91,2.83-2.57,6.14-4.37,9.84-5.37.02-.61.01-1.23.01-1.84v-1.25c.04-3.86,3.06-6.89,6.86-6.9h.01c3.79,0,6.81,3.01,6.88,6.86.02,1.06.03,2.11,0,3.17,9.7,2.86,15.79,9.69,18.12,20.31.58,2.62.7,5.33.82,7.95.08,1.83.07,3.49.07,5.16,0,1.62-.01,3.24.06,4.86.31,7.06,1.72,12.5,4.44,17.12.68,1.17,1.6,2.22,2.57,3.34l.73.85c.51.6,1.06,1.15,1.61,1.7.32.32.64.64.96.97,1.23,1.28,1.77,2.85,2.11,4.08l.44,1.58Zm-74.19-2.5h70.78c-.27-.58-.57-1.04-.95-1.43-.3-.32-.61-.62-.91-.93-.6-.6-1.21-1.21-1.76-1.86l-.71-.83c-1-1.16-2.04-2.35-2.84-3.72-2.93-4.99-4.45-10.79-4.78-18.28-.07-1.66-.07-3.32-.06-4.98,0-1.62.01-3.25-.06-4.87-.12-2.68-.24-5.28-.77-7.7-2.18-9.93-7.64-15.99-16.7-18.54-.7-.2-1.54-.72-1.48-2.06.04-1.12.02-2.26,0-3.38-.04-2.51-1.92-4.4-4.37-4.4h-.01c-2.46,0-4.33,1.91-4.36,4.43v1.21c0,.79,0,1.58-.03,2.37-.03.78-.69,1.61-1.44,1.8-3.48.87-6.57,2.52-9.21,4.91-4.99,4.53-7.65,10.49-8.15,18.21-.17,2.67-.2,5.41-.22,8.05-.02,1.6-.03,3.19-.08,4.78-.12,4.65-.76,8.62-1.95,12.16-1.3,3.82-3.14,8.18-7,11.52-.54.46-1.02,1-1.54,1.57l-.47.52c-.38.41-.69.87-.94,1.41ZM43.04,12.36s0,.02,0,.03c0-.01,0-.02,0-.03Z"/>
        <path class="cls-2" d="m49.86,98c-.17,0-.33,0-.5,0-3.67-.12-7.48-1.98-10.18-4.97-2.22-2.46-3.35-5.3-3.17-7.99l.08-1.17h27.93l-.05,1.3c-.25,6.29-5.95,12.83-14.09,12.83Zm-11.32-11.63c.21,1.66,1.09,3.42,2.49,4.98,2.22,2.46,5.45,4.05,8.41,4.14,6.83.17,11.01-4.8,11.86-9.12h-22.76Z"/>
    </g>
  </g>
</svg>