<?xml version="1.0" encoding="UTF-8"?>
<svg id="Layer_2" data-name="Layer 2" xmlns="http://www.w3.org/2000/svg" viewBox="0 0 100 100">
  <defs>
    <style>
      .cls-1 {
        fill: #f2ad00;
      }

      .cls-2 {
        fill: none;
      }
    </style>
  </defs>
  <g id="Layer_1-2" data-name="Layer 1">
    <g>
      <rect class="cls-2" width="100" height="100"/>
      <g>
        <path class="cls-1" d="m93.99,50.39c-.85,0-1.7-.04-2.54.01-.66.05-.8-.19-.82-.83-.22-7.88-2.37-15.19-6.82-21.73-6.29-9.24-14.92-15.06-25.92-17.26-9.35-1.87-18.31-.63-26.7,3.84-11.35,6.05-18.36,15.48-21.02,28.1-.5,2.38-.77,4.78-.8,7.21,0,.49-.13.68-.65.67-1.76-.03-3.53-.05-5.29,0-.75.02-.85-.27-.84-.91.11-6.07,1.27-11.94,3.72-17.49,6.17-14.05,16.7-23.2,31.43-27.41,5.2-1.49,10.56-1.89,15.98-1.44,13.15,1.11,23.98,6.73,32.52,16.71,5.67,6.63,9.2,14.32,10.55,22.98.34,2.19.53,4.39.64,6.61.04.84-.23,1.03-1,.96-.81-.07-1.62-.02-2.43-.02h0Z"/>
        <path class="cls-1" d="m46.61,41.94c0-5.89.02-11.78-.02-17.66,0-.8.21-1.01,1-.98,1.58.06,3.17.06,4.76,0,.81-.03,1.06.18,1.06,1.03-.04,5.43-.02,10.86-.02,16.29,0,6.31-.02,12.62.02,18.93,0,.83-.21,1.08-1.05,1.04-1.55-.07-3.1-.08-4.65,0-.86.04-1.12-.19-1.11-1.08.04-5.85.02-11.71.02-17.56Z"/>
        <path class="cls-1" d="m58.66,96.96c-.41.08-.55-.12-.64-.56-.36-1.82-.74-3.64-1.17-5.45-.18-.74.39-.67.72-.72,3.69-.65,7.19-1.87,10.58-3.45.72-.34,1.5-1.19,2.14-.9.6.27.87,1.29,1.26,1.99.57,1.01,1.11,2.04,1.7,3.05.23.4.26.65-.22.91-4.44,2.45-9.15,4.14-14.12,5.11-.07.01-.14.01-.25.02Z"/>
        <path class="cls-1" d="m41.45,97c-3.35-.63-6.44-1.51-9.44-2.72-1.76-.71-3.47-1.54-5.15-2.42-.5-.26-.56-.45-.26-.94.92-1.5,1.82-3.02,2.64-4.57.35-.66.65-.62,1.22-.31,3.72,2.03,7.66,3.46,11.85,4.19.45.08.73.18.59.82-.38,1.78-.67,3.58-.95,5.38-.07.45-.21.65-.5.58Z"/>
        <path class="cls-1" d="m94.31,67.1c-.05.13-.09.26-.14.39-1.84,4.76-4.39,9.11-7.6,13.07-.31.38-.53.42-.93.08-1.35-1.18-2.72-2.34-4.12-3.46-.48-.39-.46-.64-.09-1.1,2.68-3.29,4.82-6.91,6.35-10.88.18-.46.32-.68.9-.44,1.65.67,3.35,1.25,5.02,1.87.24.09.58.07.62.46Z"/>
        <path class="cls-1" d="m18.91,76.57c0,.32-.21.41-.36.54-1.39,1.18-2.81,2.35-4.19,3.55-.39.34-.61.29-.92-.09-3.18-3.94-5.73-8.24-7.57-12.97-.22-.56-.15-.77.45-.97,1.69-.57,3.37-1.2,5.04-1.84.43-.17.64-.18.84.34,1.54,4.04,3.71,7.72,6.44,11.07.11.13.21.28.28.38Z"/>
        <path class="cls-1" d="m55.07,75.87c-.02,2.8-2.33,5.04-5.17,5.01-2.74-.03-4.98-2.33-4.98-5.09,0-2.8,2.3-5.07,5.12-5.05,2.8.01,5.05,2.31,5.03,5.14Z"/>
      </g>
    </g>
  </g>
</svg>