<?xml version="1.0" encoding="UTF-8"?>
<svg id="Layer_2" data-name="Layer 2" xmlns="http://www.w3.org/2000/svg" viewBox="0 0 100 100">
  <defs>
    <style>
      .cls-1 {
        fill: none;
      }

      .cls-2 {
        fill: #2283a0;
      }
    </style>
  </defs>
  <g id="Layer_1-2" data-name="Layer 1">
    <g>
      <rect class="cls-1" width="100" height="100"/>
      <g>
        <path class="cls-2" d="m79.83,97.24H25.06c.14-.06.29-.12.53-.21-.64-.1-1.18-.14-1.69-.28-4.24-1.21-7.21-5.18-7.22-9.59,0-1.33,0-2.65,0-3.98v-.55c-.25,0-.4-.01-.56,0-2.74.21-4.51-1.9-4.48-4.27.02-1.45,0-2.9,0-4.35,0-6.6-.01-13.19,0-19.79,0-2.21,1.78-3.97,3.99-4.02.33,0,.65,0,1.04,0v-.73c0-12.08,0-24.15,0-36.23,0-.5.02-1.02.11-1.51.71-4.05,2.95-6.85,6.88-8.19.63-.21,1.31-.28,1.99-.42l-.06-.38c13.02,0,25.91.23,38.93.23.29.33.57.68.89.99,7.16,7.15,14.31,14.31,21.52,21.42.98.96,1.41,1.88,1.4,3.28-.05,18.69-.03,37.38-.03,56.06,0,.89.03,1.78,0,2.67-.09,2.07-.68,3.99-1.94,5.65-1.72,2.27-3.95,3.73-6.9,3.94.13.08.25.16.37.24Zm2.2-68.15c-.42,0-.76,0-1.11,0-4.14,0-8.27.05-12.41-.04-3.16-.07-6.12-3.15-6.16-6.32-.07-4.38-.08-8.76-.09-13.14,0-.46-.14-.54-.56-.54-10.54.03-21.08.04-31.62.06-1.26,0-2.51-.03-3.77.04-1.79.1-3.15,1.26-3.45,3.03-.17,1.06-.14,2.15-.14,3.23,0,11.29,0,22.58,0,33.88q0,.88,1.05.88c14.94,0,29.88,0,44.82,0,.87,0,1.75-.03,2.62.06.56.06,1.15.2,1.63.47,1.45.82,2.08,2.13,2.08,3.78,0,7.47,0,14.94,0,22.41,0,.66.02,1.33-.03,1.99-.15,2.07-1.71,3.6-3.77,3.72-.64.04-1.29,0-1.94,0-14.94,0-29.88,0-44.82,0-.54,0-1.07,0-1.57,0,0,1.76-.13,3.44.03,5.1.21,2.08,1.46,3.2,3.54,3.39,1.06.1,2.13.03,3.19.03,15.57,0,31.14,0,46.71,0,.61,0,1.22.04,1.83.03,2.46-.04,4.02-1.47,4.14-3.92.09-1.79.03-3.59.02-5.39-.08-12.74-.16-25.48-.23-38.22-.02-4.63,0-9.25,0-13.88,0-.21,0-.41,0-.66Zm-45.2,37.8h0c0,.51,0,1.01,0,1.52,0,2.15,0,4.29,0,6.44,0,.24-.05.5.32.53,2.61.18,5.23.35,7.82-.13,2.49-.46,4.55-1.63,5.84-3.9,1.04-1.84,1.22-3.85,1.07-5.93-.35-4.81-3.96-6.63-7.03-7.03-2.55-.33-5.08-.08-7.62.12-.34.03-.43.16-.43.49.01,2.63,0,5.27,0,7.9Zm-10.75,2.4c1.07,0,2.07.1,3.04-.02,2.76-.35,5.26-1.98,5.31-5.53.04-2.34-1.11-4.25-3.27-5-.68-.24-1.42-.43-2.14-.43-2.14,0-4.28.12-6.42.18-.36.01-.46.14-.46.51.02,1.87.02,3.73.02,5.6,0,3.44,0,6.88,0,10.31,0,.26-.03.49.35.48,1.16-.01,2.33,0,3.57,0v-6.11Zm38.75-10.97c-3.4,0-6.75,0-10.1,0-.34,0-.34.19-.34.44,0,5.37,0,10.75,0,16.12,0,.41.11.54.53.53.96-.04,1.92-.06,2.88,0,.51.03.57-.14.57-.57-.02-1.92,0-3.84-.02-5.76,0-.38.08-.52.49-.51,1.66.03,3.31.02,4.97.02.2,0,.4-.02.59-.03v-3.17h-6.02v-3.8h6.46v-3.26Z"/>
        <path class="cls-2" d="m40.84,66.94c0-1.73,0-3.45,0-5.18,0-.44.18-.59.6-.55,1,.11,2.03.11,2.99.35,1.82.45,3.07,1.94,3.23,3.81.08.91.11,1.86-.05,2.76-.47,2.61-2.03,3.98-4.69,4.28-.5.06-1.01.06-1.51.1-.46.04-.61-.17-.61-.61.01-1.66,0-3.31,0-4.97,0,0,.02,0,.03,0Z"/>
        <path class="cls-2" d="m26.09,66.19v-5.03c.94.07,1.85.05,2.72.23,1.08.23,1.67,1.02,1.76,2.07.09,1.01-.46,2-1.36,2.46-.84.43-2.06.54-3.12.27Z"/>
      </g>
    </g>
  </g>
</svg>