<?xml version="1.0" encoding="UTF-8"?>
<svg id="Layer_2" data-name="Layer 2" xmlns="http://www.w3.org/2000/svg" viewBox="0 0 100 100">
  <defs>
    <style>
      .cls-1 {
        fill: none;
      }

      .cls-2 {
        fill: red;
      }
    </style>
  </defs>
  <g id="Layer_1-2" data-name="Layer 1">
    <g>
      <rect class="cls-1" width="100" height="100"/>
      <g>
        <path class="cls-2" d="m97.02,27.04c-.42,1.09-.57,2.27-1.11,3.33-2.19,4.25-5.65,6.6-10.43,6.75-3.79.12-7.59.04-11.39.02-2.13,0-3.72-1.64-3.7-3.73.02-2.03,1.62-3.6,3.72-3.61,3.06-.01,6.12-.01,9.18,0,.66,0,.81-.05.4-.71-4.1-6.6-9.69-11.53-16.67-14.89-5.56-2.67-11.46-3.98-17.61-3.85-8.48.17-16.2,2.71-23.01,7.84-6.98,5.25-11.84,12.03-14.37,20.4-1.39,4.62-1.93,9.35-1.58,14.2.62,8.33,3.51,15.76,8.78,22.18,5.86,7.15,13.32,11.84,22.42,13.78,3.69.79,7.42,1.1,11.19.78,2.44-.21,3.93.73,4.51,2.68.65,2.16-.91,4.43-3.16,4.62-.61.05-1.23-.06-1.81.19h-5.33c-1.09-.29-2.23-.24-3.34-.39-7.18-1-13.82-3.44-19.82-7.51-8.23-5.57-14.19-12.99-17.8-22.26-1.44-3.7-2.4-7.53-2.8-11.5-.09-.87.04-1.77-.32-2.61v-5.69c.4-1.38.32-2.82.53-4.23.69-4.49,1.95-8.8,3.93-12.88,5.15-10.62,13.11-18.38,23.93-23.14,4.18-1.84,8.54-3,13.09-3.5.8-.09,1.65.07,2.41-.33h6.43c1.19.43,2.45.34,3.67.53,4.68.7,9.14,2.07,13.38,4.12,6.77,3.28,12.49,7.88,17.03,13.9.72.96,1.41,1.94,2.28,3.14,0-.54,0-.83,0-1.12,0-3.03-.01-6.06.01-9.09.02-2.41,2.32-4.06,4.64-3.45,1.42.37,2.09,1.44,2.69,2.62v13.41Z"/>
        <path class="cls-2" d="m53.67,35.4c0,4.77-.02,9.55.01,14.32,0,1.21-.4,2.2-1.24,3.04-4.74,4.74-9.48,9.48-14.22,14.21-1.61,1.6-3.83,1.67-5.31.2-1.53-1.51-1.52-3.74.11-5.39,3.31-3.35,6.65-6.67,9.98-10,.91-.91,1.8-1.83,2.74-2.71.43-.41.61-.83.6-1.43-.02-8.97-.01-17.93,0-26.9,0-2,1.31-3.57,3.15-3.78,1.93-.23,3.55.88,4.1,2.76.11.39.09.79.09,1.18,0,4.83,0,9.67,0,14.5Z"/>
        <path class="cls-2" d="m87.95,62.58c.29-1.57.62-3.4,1.41-5.08.76-1.61,2.71-2.29,4.38-1.7,1.74.61,2.76,2.32,2.39,4.12-.28,1.36-.62,2.72-1.02,4.06-.49,1.61-2.31,2.75-3.83,2.5-2.02-.33-3.3-1.74-3.32-3.89Z"/>
        <path class="cls-2" d="m68.03,93.15c-1.61.02-2.98-.94-3.5-2.43-.51-1.46-.08-3.13,1.17-4.01,1.42-1,2.99-1.79,4.63-2.34,1.61-.54,3.3.23,4.14,1.68.83,1.45.69,3.26-.57,4.36-1.51,1.31-3.36,2.06-5.23,2.73-.19.07-.42,0-.64,0Z"/>
        <path class="cls-2" d="m85.05,72.21c1.39.03,2.48.65,3.13,1.87.7,1.31.66,2.67-.21,3.89-.8,1.11-1.68,2.18-2.61,3.19-1.34,1.46-3.55,1.61-4.96.42-1.62-1.36-1.88-3.43-.61-5.14.77-1.03,1.59-2.02,2.42-2.99.73-.85,1.68-1.3,2.83-1.25Z"/>
      </g>
    </g>
  </g>
</svg>