<?xml version="1.0" encoding="UTF-8"?>
<svg id="Layer_2" data-name="Layer 2" xmlns="http://www.w3.org/2000/svg" viewBox="0 0 100 100">
  <defs>
    <style>
      .cls-1 {
        fill: none;
      }

      .cls-2 {
        fill: #2283a0;
      }
    </style>
  </defs>
  <g id="Layer_1-2" data-name="Layer 1">
    <g>
      <rect class="cls-1" width="100" height="100"/>
      <g>
        <path class="cls-2" d="m74.62,97.01c-2.45,0-4.9,0-7.35,0H14.75c-2.27,0-4.01-.64-5.18-1.88-1.17-1.25-1.69-3.03-1.55-5.28,1.18-18.74,15.49-34.94,34.02-38.53,11.21-2.17,22.57.27,32,6.86,9.44,6.6,15.65,16.47,17.46,27.77.24,1.52.38,3.05.47,4.22.15,1.96-.37,3.66-1.53,4.91-1.16,1.26-2.83,1.93-4.82,1.93-3.67,0-7.34,0-11.01,0Zm-24.64-3.05h17.29c6.12,0,12.24,0,18.36,0,1.12,0,2.02-.33,2.59-.95.56-.61.82-1.51.73-2.61-.1-1.33-.23-2.66-.44-3.97-1.68-10.48-7.44-19.63-16.2-25.76-8.75-6.12-19.29-8.37-29.68-6.37-17.19,3.33-30.47,18.35-31.56,35.73-.09,1.39.16,2.4.73,3.01.57.61,1.57.92,2.96.92h35.23Z"/>
        <path class="cls-2" d="m50,47.67h-.06c-12.27-.03-22.23-10.1-22.21-22.44.02-12.27,10.01-22.24,22.26-22.24h.01c5.92,0,11.51,2.33,15.72,6.55,4.23,4.24,6.55,9.85,6.54,15.81,0,5.96-2.36,11.57-6.61,15.81-4.22,4.2-9.77,6.51-15.65,6.51Zm0-41.64c-10.58,0-19.19,8.61-19.22,19.21-.02,10.66,8.58,19.36,19.17,19.39h.05c5.07,0,9.87-2,13.51-5.62,3.68-3.66,5.71-8.51,5.72-13.65h0c0-5.15-2-10-5.65-13.66-3.64-3.65-8.46-5.66-13.57-5.66h-.01Z"/>
      </g>
    </g>
  </g>
</svg>