<?xml version="1.0" encoding="UTF-8"?>
<svg id="Layer_2" data-name="Layer 2" xmlns="http://www.w3.org/2000/svg" viewBox="0 0 100 100">
  <defs>
    <style>
      .cls-1 {
        fill: none;
      }

      .cls-2 {
        fill: #2283a0;
        fill-rule: evenodd;
      }
    </style>
  </defs>
  <g id="Layer_1-2" data-name="Layer 1">
    <g>
      <rect class="cls-1" width="100" height="100"/>
      <g>
        <path class="cls-2" d="m40.93,3.74c20.59.07,37.28,16.8,37.18,37.24-.12,20.45-17.07,37.25-37.43,37.11-20.44-.14-36.96-16.8-36.94-37.25C3.77,20.15,20.29,3.67,40.93,3.74Zm30.41,37.11c.04-16.73-13.55-30.51-30.14-30.56-17-.05-30.88,13.57-30.9,30.32-.02,17.02,13.47,30.64,30.44,30.73,16.96.09,30.58-13.47,30.6-30.49Z"/>
        <path class="cls-2" d="m74.08,68.89c.48.28,1.67.68,2.49,1.48,6.12,6.03,12.19,12.11,18.24,18.21,1.89,1.91,1.92,4.62.19,6.37-1.72,1.75-4.48,1.78-6.37-.1-6.16-6.1-12.28-12.24-18.4-18.38-1.46-1.46-1.77-3.18-.92-5.05.78-1.68,2.14-2.53,4.76-2.53Z"/>
        <path class="cls-2" d="m64.73,35.32c.12,2.42-.47,3.82-2.49,4.04-1.96.21-2.93-.9-3.22-2.79-.23-1.59-.39-3.23-.9-4.73-2.22-6.43-7.1-9.55-13.58-10.46-2.45-.34-3.87-1.44-3.73-3.19.16-1.95,1.9-2.91,4.55-2.5,10.96,1.72,17.18,7.67,19.2,18.37.11.6.17,1.21.17,1.24Z"/>
      </g>
    </g>
  </g>
</svg>