<?xml version="1.0" encoding="UTF-8"?>
<svg id="Layer_2" data-name="Layer 2" xmlns="http://www.w3.org/2000/svg" viewBox="0 0 100 100">
  <defs>
    <style>
      .cls-1 {
        fill: none;
      }

      .cls-2 {
        fill: #2283a0;
      }
    </style>
  </defs>
  <g id="Layer_1-2" data-name="Layer 1">
    <g>
      <rect class="cls-1" width="100" height="100"/>
      <g>
        <path class="cls-2" d="m89.86,59.72c1.16-.11,2.36-.35,3.01-1.72l.06-5.47.06-.28-.22-.17c-.02-.09-.02-.18-.07-.31-.61-1.88-1.88-3.01-3.53-3.2-.94-.09-1.37-.52-1.92-1.37-3.92-6.04-7.83-12.08-11.77-18.13-5.03-7.74-10.05-15.48-15.06-23.22-.81-1.22-1.85-2.07-3.21-2.57l-2-.04-.22.06c-1.09.5-2.09,1.16-3.05,1.79l-1,.67c-1.46.92-1.76,2.11-.91,3.62,1,1.79.61,3.79-.98,4.86-1.61,1.09-3.6.72-4.93-.92-1-1.26-2.16-1.46-3.55-.61-1.29.79-2.61,1.59-3.92,2.4-1.52.94-1.81,2.11-.94,3.68.78,1.4.78,2.66-.04,3.86-.83,1.22-2.01,1.74-3.53,1.53-.92-.11-1.68-.59-2.36-1.5-1.11-1.44-2.16-1.64-3.68-.7-1.39.85-2.49,1.59-3.49,2.31-2.03,1.52-2.44,4.18-.98,6.45,1.16,1.81,2.35,3.62,3.51,5.41l2.62,4.03c1.48,2.31,2.97,4.64,4.45,6.95l.79,1.24s.02.04.04.04h-.24l-5.15.02c-4.79.02-9.72.02-14.58-.06-2.05,0-4.9.33-6.02,3.81l-.04,5.58.07.26c.55,1.03,1.42,1.57,2.73,1.68,2.07.2,3.4,1.66,3.31,3.62-.07,1.96-1.5,3.33-3.55,3.42-1.53.07-2.16,1.05-2.51,1.79l-.06.11v1.81c.17,1.46.17,2.97.17,4.45l.02,1.33c.02,1.83.83,2.7,2.66,2.83,1.81.13,3.25,1.68,3.29,3.53.02,1.85-1.44,3.44-3.25,3.51-.89.04-2.14.26-2.83,1.74l-.06,4.91.02.17c.54,1.87,1.76,3.14,3.6,3.79l78.58.04.09-.04c1.85-.65,3.07-1.92,3.6-3.79l.02-4.84-.06-.26c-.52-1.07-1.39-1.63-2.73-1.72-1.96-.13-3.38-1.68-3.33-3.6.04-1.9,1.5-3.36,3.44-3.42,1.24-.06,2.11-.63,2.62-1.79l.06-8.52-.06-.22c-.52-1.2-1.4-1.77-2.79-1.83-1.79-.06-3.21-1.52-3.27-3.4-.07-1.85,1.26-3.42,3.05-3.6ZM25.62,28.25c-.09-.15-.11-.22-.11-.22,0-.02.06-.06.18-.13.15-.07.33-.18.5-.33.63-.59,1.03-.72,2.01-.02,2.68,1.94,6.39,1.9,9.26-.09,2.81-1.98,4.08-5.41,3.27-8.76l-.07-.22c-.02-.11-.07-.26.02-.31.22-.09.41-.22.55-.33.39-.24.44-.28.76-.02,2.66,2.2,6.69,2.36,9.57.41,3.09-2.07,4.43-5.65,3.44-9.11-.11-.37-.09-.37.15-.5.3-.13.57-.33.85-.54.07-.06.13-.07.13-.09.02.02.06.06.13.15,2.73,4.23,5.51,8.46,8.26,12.67l.02.02c-.26.15-.5.31-.72.5-1.09.89-1.29,2.37-.52,3.49.72,1.05,2.18,1.39,3.36.78.31-.17.65-.33.68-.37.09.06.3.37.48.68l14.58,22.5h-7.3c-11.92,0-23.85,0-35.77.02-.55,0-.79-.11-1.03-.54-.44-.79-.94-1.55-1.44-2.29l-.24-.35c.96-.59,1.9-1.22,2.83-1.85,1.4-.94,1.77-2.42.92-3.71-.81-1.26-2.33-1.5-3.75-.61-.92.59-1.85,1.16-2.73,1.79-.04.02-.06.04-.07.04,0-.02-.04-.06-.06-.09-2.7-4.19-5.4-8.39-8.13-12.56Zm56.48,35.1c.02,3.47,2.29,6.54,5.62,7.65.5.17.5.24.48.61-.07,1.02-.04,2.01,0,2.77,0,.17-.02.22-.02.22,0,0-.04.04-.24.11-3.36,1.07-5.6,3.9-5.84,7.37-.22,3.34,1.72,6.56,4.82,8.02.31.17.67.31,1.05.39.15.04.18.07.18.07,0,0,.04.06.04.31,0,.48,0,.98-.04,1.07-.11.07-.65.07-1.16.07h-34.01c-7.48,0-14.97-.02-22.45.02-.28.07-.39-.04-.41-.04-.02-.06-.04-.15,0-.35.06-.54.04-1.09,0-1.7-.06-1.15-.85-1.96-2-2.05-1.15-.09-2.09.72-2.22,1.85-.07.74-.06,1.46-.04,2.14v.13h-.07c-2.29-.02-4.58-.02-6.87-.02s-4.56,0-6.85.02c-.22,0-.3-.04-.3-.04,0,0-.04-.07-.02-.3.02-.24.04-.54-.02-.83-.04-.24-.04-.28.35-.41,2.44-.81,4.34-2.6,5.23-4.93.87-2.31.65-4.91-.63-7.13-1-1.76-2.49-2.97-4.4-3.6-.39-.13-.42-.18-.42-.61.04-.92,0-1.83-.06-2.83v-.18s.04-.04.2-.09c3.66-1.26,5.84-4.19,5.82-7.87,0-3.68-2.24-6.69-5.82-7.89q-.28-.09-.26-.42v-.83c0-.42,0-.85-.02-.89.11-.06.57-.06,1.02-.04h5.21c2.51,0,5.03,0,7.54-.02h.04c.24,0,.33.02.33.02,0,.02.04.11,0,.33-.06.63-.02,1.26,0,1.79.07,1.37.96,2.2,2.24,2.14,1.2-.04,2-.92,2.01-2.22.02-.67.02-1.31.02-2.05h57.13c.41,0,.81,0,.87-.02.04.09.04.5.04,1,0,.11,0,.24.02.35.07.54.04.76-.76,1.02-3.23,1.09-5.38,4.25-5.34,7.87Z"/>
        <path class="cls-2" d="m72.92,75.63c-.42-1.87-1.53-3.12-3.33-3.73-2.14-.74-4.38-.79-6.63-.17-2.16.61-3.46,2.01-3.84,4.18-.28,1.59-.28,3.21.02,4.84.44,2.36,1.92,3.82,4.38,4.38.83.18,1.5.28,2,.28.07,0,.13,0,.18-.02,1.46-.02,2.61-.18,3.7-.52,1.87-.59,3.03-1.85,3.47-3.73.44-1.85.46-3.7.06-5.51Zm-6.74,5.06c-.06.2-.09.26-.11.26,0,0-.06-.04-.09-.22-.39-1.53-.39-3.12-.02-4.71.04-.18.07-.24.13-.24.04.04.06.15.09.33.17.91.22,1.66.18,2.27v.04c.02.87,0,1.59-.18,2.27Z"/>
        <path class="cls-2" d="m55.09,64.15c-.43-1.96-1.63-3.25-3.57-3.84-1.81-.57-3.73-.67-5.71-.26-2.81.57-4.19,2.01-4.64,4.84-.07.41-.07.83-.09,1.24l-.02.52.02.59h.02c0,.28,0,.57.02.85.26,2.85,1.46,4.58,3.68,5.28,1.13.35,2.25.54,3.36.54,1.31,0,2.61-.24,3.9-.74,1.5-.57,2.49-1.72,2.9-3.31.5-1.9.55-3.82.13-5.71Zm-6.58,2.83v.04c.02.74.02,1.48-.17,2.16-.02.07-.07.26-.11.3,0,0-.04-.06-.09-.22-.41-1.57-.41-3.18,0-4.79.04-.17.07-.2.09-.2,0,.02.04.07.09.28.15.7.22,1.48.18,2.44Z"/>
        <path class="cls-2" d="m66.07,62.31c-1.44,2.55-2.88,5.08-4.32,7.63l-2.96,5.19c-1.4,2.48-2.81,4.95-4.21,7.45-1.09,1.92-1.94,2.42-4.1,2.42h-.06l-.24.02h-.26c-.13,0-.26,0-.39-.02-.7-.09-1.16-.35-1.37-.79-.22-.42-.15-.94.18-1.55,3.9-6.91,7.8-13.8,11.68-20.69,1.07-1.87,3.4-2.68,5.45-1.87.46.18.76.46.89.81.17.5-.06,1-.3,1.4Z"/>
        <path class="cls-2" d="m30.13,72.69l.02.5c0,.39,0,.76-.02,1.15-.06,1.15-.87,1.96-2,2.03h-.15c-1.16,0-2-.78-2.07-1.94-.06-1.15-.07-2.31-.02-3.45.04-.59.28-1.13.68-1.5.41-.35.94-.54,1.5-.52,1.2.06,2.03.94,2.05,2.2.02.37.02.72.02,1.09l-.02.44Z"/>
        <path class="cls-2" d="m30.13,63.19l.02.5c0,.39,0,.76-.02,1.15-.06,1.18-.85,2-1.98,2.07h-.13c-.55,0-1.07-.2-1.46-.55-.41-.35-.63-.85-.65-1.4-.06-1.22-.06-2.42.02-3.57.07-1.16.94-1.9,2.18-1.85,1.16.04,1.96.83,2.01,2.01.02.37.02.76.02,1.13l-.02.52Z"/>
        <path class="cls-2" d="m30.13,82.17l.02.5c0,.39,0,.78-.02,1.15-.06,1.16-.87,1.98-2.01,2.03h-.11c-.54,0-1.05-.18-1.44-.54-.41-.37-.63-.89-.67-1.44-.06-1.26-.04-2.38.02-3.47.06-.63.3-1.13.7-1.48.41-.33.92-.5,1.53-.44,1.15.07,1.92.87,1.98,2.05.02.39.02.76.02,1.15l-.02.5Z"/>
        <path class="cls-2" d="m50.05,36.42c-1.31.94-2.61,1.79-3.88,2.53-.35.2-.76.3-1.15.3-.85,0-1.7-.44-2.2-1.22-.7-1.13-.46-2.61.57-3.34.85-.61,1.74-1.18,2.62-1.74.39-.24.76-.5,1.15-.74.35-.24.74-.28,1.03-.31l.18-.02h.04c1.16.04,2,.61,2.4,1.64.42,1.15.15,2.24-.78,2.9Z"/>
        <path class="cls-2" d="m61.19,28.09c-.02.52-.31,1.29-1.11,1.83l-.31.2c-1.05.7-2.11,1.4-3.18,2.05-.44.28-.92.41-1.39.41-.83,0-1.64-.41-2.14-1.16-.79-1.2-.5-2.72.7-3.55,1-.68,2.22-1.5,3.49-2.27.83-.48,1.79-.5,2.59-.06.85.48,1.35,1.44,1.35,2.55Z"/>
      </g>
    </g>
  </g>
</svg>