<?xml version="1.0" encoding="UTF-8"?>
<svg id="Layer_2" data-name="Layer 2" xmlns="http://www.w3.org/2000/svg" viewBox="0 0 100 100">
  <defs>
    <style>
      .cls-1 {
        fill: none;
      }

      .cls-2 {
        fill: #2283a0;
      }
    </style>
  </defs>
  <g id="Layer_1-2" data-name="Layer 1">
    <g>
      <rect class="cls-1" width="100" height="100"/>
      <g>
        <path class="cls-2" d="m92.1,4.22c-.54-.48-1.19-.73-1.74-.96-.21-.08-.4-.17-.59-.25l-51.54-.08-.25.04c-3.81,1.34-4.23,4.5-4.18,6.76.06,6.19.06,12.49.04,18.6v7.26c0,2.41.31,2.76,2.78,2.82.4.02.94-.02,1.34-.4.4-.38.44-.92.44-1.4-.02-7.85-.02-15.69-.02-23.52v-4.16c0-1.28.17-1.44,1.4-1.44h8.16c8.62,0,17.24,0,25.86-.02h.19v.23c-.02,2.26-.02,4.52-.02,6.8l.02,2.8c0,1.49.77,2.11,1.42,2.36.67.25,1.65.33,2.68-.71.36-.36.71-.71,1.07-1.07.56-.54,1.11-1.09,1.74-1.74.46.5.96.98,1.44,1.47.29.29.59.56.86.86l.15.15c.63.65,1.57,1.63,3.05,1.02,1.44-.61,1.42-1.97,1.42-2.85v-3.45c0-1.95,0-3.89-.02-5.84v-.04h.02c1.44,0,1.61.17,1.61,1.63v71.04c0,1.44-.1,1.57-1.55,1.57h-24.9c-2.55,0-2.89.31-2.91,2.93-.02.36.02.86.38,1.23.36.36.84.4,1.26.4h.02c6.15-.02,12.32-.02,18.5-.02h7.97c.56,0,1.15,0,1.76-.17,2.59-.73,4.02-2.74,4.02-5.69V19.64c0-3.64,0-7.28.02-10.92,0-1.88-.63-3.35-1.9-4.5Zm-8.83,3.26v4.65c-.19-.21-.38-.42-.59-.61-.59-.59-1.19-.88-1.78-.88s-1.19.29-1.78.84c-.19.19-.38.4-.56.59v-4.6c1.53.04,3.05.04,4.71.02Z"/>
        <path class="cls-2" d="m60.86,61.61c-.33-.06-.67-.13-1.03-.17-.94-.17-1.92-.34-2.91-.38-1.19-.02-1.72-.42-1.97-1.49-.1-.48-.1-.52.02-.67,1.05-1.34,2.05-2.7,3.05-4.08.94-1.28.86-2.3-.25-3.43-2.03-2.03-4.06-4.06-6.09-6.07-1.15-1.13-2.2-1.21-3.49-.25-.29.21-.56.4-.84.61-.77.52-1.57,1.09-2.26,1.78-.84.79-1.53.88-2.55.27q-.33-.21-.36-.38c-.13-1.09-.29-2.18-.44-3.26l-.25-1.67c-.25-1.69-1.03-2.41-2.74-2.41h-8.41c-1.72,0-2.51.71-2.76,2.41-.06.36-.1.71-.17,1.07-.17.92-.33,1.88-.36,2.87-.02,1-.36,1.42-1.36,1.74-.54.17-.67.13-.94-.1-1.09-.88-2.22-1.69-3.35-2.53l-.5-.38c-1.32-.96-2.36-.88-3.49.25-2.05,2.01-4.08,4.04-6.09,6.09-1.09,1.09-1.17,2.18-.27,3.43l.56.8c.59.79,1.15,1.63,1.86,2.36.8.82.86,1.46.27,2.49-.19.36-.25.38-.5.4-1.23.15-2.47.33-3.7.5l-1.23.19c-1.55.23-2.3,1.11-2.3,2.68-.02,2.85-.02,5.67,0,8.52,0,1.63.73,2.47,2.36,2.7.33.06.69.13,1.05.19.94.15,1.9.31,2.87.36,1.11.04,1.55.38,1.82,1.36.15.56.13.67-.06.9-.79.98-1.55,2.01-2.32,3.03l-.59.79c-.98,1.34-.92,2.43.23,3.58,1.99,2.03,4,4.04,6.01,6.03,1.17,1.15,2.24,1.21,3.58.23.29-.21.56-.42.86-.61.75-.54,1.53-1.09,2.24-1.76.84-.77,1.46-.86,2.39-.29.44.27.46.29.48.48.15,1.26.33,2.53.5,3.79l.17,1.07c.25,1.74,1.07,2.45,2.82,2.45h8.5c1.49-.02,2.36-.75,2.57-2.22l.15-.94c.17-1.02.33-2.09.4-3.14.06-1.09.4-1.53,1.32-1.78.59-.17.75-.13,1.05.1,1.19.96,2.43,1.86,3.66,2.78l.19.13c1.23.9,2.32.84,3.37-.19,1.59-1.55,3.16-3.14,4.73-4.71l1.49-1.49c.52-.52.8-1.11.84-1.74l.02-.04v-.06c-.06-.69-.4-1.23-.69-1.61-.23-.31-.46-.65-.69-.96-.5-.73-1.03-1.49-1.67-2.13-.8-.82-.88-1.51-.27-2.55.19-.31.21-.31.36-.33,1.21-.15,2.45-.34,3.66-.5l1.28-.19c1.72-.25,2.43-1.05,2.43-2.74v-8.6c-.02-1.51-.73-2.34-2.22-2.55Zm-2.34,9.6c-.79.1-1.59.21-2.39.33-.8.1-1.57.23-2.36.34-1.11.15-1.84.75-2.18,1.78-.38,1.15-.82,2.26-1.36,3.31-.5.96-.4,1.92.27,2.8.4.52.77,1.03,1.15,1.55.56.73,1.11,1.49,1.69,2.22.1.13.13.19.04.13-1.38,1.28-2.68,2.62-3.77,3.72-.77-.61-1.55-1.19-2.34-1.78l-1.4-1.05c-.38-.29-.9-.63-1.59-.69h-.27c-.1.02-.27.04-.44.1l-1,.42c-1.15.46-2.3.92-3.43,1.4-1.05.46-1.19,1.57-1.28,2.09-.08.61-.17,1.23-.27,1.86-.13.88-.25,1.78-.38,2.78-1.78-.02-3.52-.04-5.29.1,0,0-.02-.06-.04-.23-.13-.98-.27-1.97-.42-2.93-.08-.61-.19-1.21-.27-1.82-.13-1.03-.71-1.74-1.67-2.05-1.32-.44-2.45-.9-3.47-1.44-.29-.15-.67-.27-1.11-.27-.48,0-1.03.15-1.61.59-.48.38-.96.73-1.46,1.11-.77.56-1.53,1.13-2.3,1.74-.13.08-.17.1-.13.02-1.17-1.21-2.41-2.47-3.79-3.64,0,0,.02-.06.13-.17.52-.67,1.03-1.34,1.53-2.03.42-.54.82-1.11,1.26-1.65.73-.96.84-1.95.29-2.97-.5-.94-.92-1.99-1.32-3.22-.33-1.03-1.09-1.65-2.18-1.8-.77-.08-1.53-.21-2.3-.31-.8-.13-1.59-.23-2.49-.36.02-1.74.02-3.49,0-5.31.69-.08,1.4-.19,2.09-.29.86-.13,1.69-.25,2.53-.36,1.23-.17,2.05-.82,2.39-1.95.33-1.11.75-2.11,1.23-3.03.59-1.07.48-2.09-.31-3.12-.5-.65-.98-1.28-1.46-1.93-.42-.56-.84-1.13-1.32-1.76,1.26-1.21,2.49-2.45,3.77-3.77h.02c.65.5,1.3.98,1.95,1.49.61.44,1.21.9,1.8,1.36.94.73,1.95.84,2.97.29,1-.52,2.07-.96,3.14-1.3,1.11-.34,1.74-1.11,1.88-2.3.08-.77.21-1.55.31-2.3.13-.75.23-1.49.36-2.36,1.74.02,3.47.02,5.31,0,.08.69.19,1.4.29,2.09.13.82.25,1.63.36,2.47.15,1.28.82,2.11,1.99,2.45,1,.29,2.01.71,2.93,1.21,1.11.59,2.16.48,3.16-.29.67-.54,1.36-1.05,2.05-1.57.54-.4,1.07-.77,1.65-1.23,1.21,1.26,2.45,2.49,3.77,3.77-.44.56-.88,1.15-1.3,1.72-.5.67-1,1.34-1.51,1.99-.77,1-.88,2.03-.33,3.08.48.88.9,1.9,1.32,3.2.33,1.03,1.07,1.63,2.2,1.78.67.08,1.34.19,2.03.29.88.13,1.76.25,2.72.38-.02,1.76-.02,3.52-.02,5.34Z"/>
        <path class="cls-2" d="m84.75,35.56c-.06,2.53-.4,2.82-2.89,2.82h-7.11c-9.94,0-19.9,0-29.86.02h-.02c-.48,0-1-.04-1.38-.44-.4-.4-.42-.94-.42-1.42.08-2.39.42-2.72,2.78-2.72h22.47c4.9.02,9.79.02,14.69,0,.46-.04.96.04,1.34.42s.4.9.4,1.32Z"/>
        <path class="cls-2" d="m69.27,23.13c-.02,2.57-.36,2.89-2.89,2.89h-12.99c-2.91-.02-5.8-.02-8.7,0h-.02c-.42,0-.86-.04-1.19-.38-.36-.36-.4-.84-.38-1.21.02-2.66.36-2.97,2.97-2.97h4.67c5.61,0,11.24,0,16.84-.02.52-.02.94.04,1.3.42.38.38.42.88.4,1.28Z"/>
        <path class="cls-2" d="m84.75,44.73c-.04,2.62-.38,2.93-2.95,2.93h-9.33c-2.07,0-4.14-.02-6.21,0h-.04c-.38,0-.82-.04-1.15-.38-.33-.33-.38-.8-.38-1.15,0-1.34,0-2.03.48-2.53.5-.5,1.19-.5,2.55-.5h3.85c3.83.02,7.68.02,11.53,0,.36-.02.9.04,1.26.4s.4.86.4,1.23Z"/>
        <path class="cls-2" d="m84.75,53.91c-.02,2.66-.36,2.99-2.97,2.99h-3.93c-3.81-.02-7.64-.02-11.45.02h-.04c-.4,0-.92-.06-1.28-.42-.38-.38-.42-.9-.4-1.34.06-2.51.38-2.82,2.87-2.82l9.46.02c2.03,0,4.06,0,6.11-.02.42-.02.9.04,1.23.38.36.36.4.84.4,1.19Z"/>
        <path class="cls-2" d="m84.75,63.29c-.04,2.57-.38,2.89-2.91,2.89h-9.54c-2.01-.02-4-.02-6.01,0h-.04c-.38,0-.84-.04-1.17-.38-.36-.36-.4-.84-.4-1.19.02-2.66.36-2.99,2.99-2.99h3.7c3.89.02,7.78,0,11.65-.02.44,0,.94.06,1.32.42.36.38.4.88.4,1.28Z"/>
        <path class="cls-2" d="m53.37,16.23c-.5.5-1.21.5-2.59.5h-1.76c-1.46,0-2.93,0-4.39.02h-.06c-.31,0-.75-.04-1.09-.38-.33-.33-.38-.8-.38-1.17,0-2.7.33-3.01,3.01-3.01h3.49c.9,0,1.82,0,2.74-.02.23-.02.73-.02,1.11.33.33.31.38.75.38,1.07.04,1.4.04,2.13-.46,2.66Z"/>
        <path class="cls-2" d="m62.66,16.21c-.5.52-1.21.52-2.62.52h-.94c-.73,0-1.46,0-2.2.02h-.1c-.31,0-.69-.06-.98-.33-.33-.33-.4-.77-.4-1.09-.02-1.38-.04-2.11.46-2.64.52-.5,1.21-.5,2.64-.5h1.44c.56,0,1.13,0,1.67-.02.31,0,.73.02,1.05.31.36.31.4.75.42,1.05.04,1.47.08,2.16-.44,2.68Z"/>
        <path class="cls-2" d="m44.03,59.54c-2.41-2.53-5.69-4-9.21-4.1-3.37-.08-6.67,1.15-9.19,3.52-2.59,2.47-4.08,5.8-4.16,9.42-.1,3.37,1.15,6.61,3.54,9.1,2.47,2.59,5.82,4.08,9.42,4.16h.25c6.84,0,12.74-5.75,12.95-12.72.1-3.49-1.17-6.82-3.6-9.37Zm-9.52.46h.15c2.3.04,4.44.98,6.05,2.68,1.61,1.67,2.45,3.83,2.39,6.05-.13,4.65-4.06,8.45-8.64,8.35-4.71-.13-8.43-3.89-8.43-8.45v-.19c.13-4.69,3.91-8.43,8.5-8.43Z"/>
      </g>
    </g>
  </g>
</svg>